<?xml version="1.0" encoding="UTF-8" standalone="no"?>
<svg
   xmlns:dc="http://purl.org/dc/elements/1.1/"
   xmlns:cc="http://creativecommons.org/ns#"
   xmlns:rdf="http://www.w3.org/1999/02/22-rdf-syntax-ns#"
   xmlns:svg="http://www.w3.org/2000/svg"
   xmlns="http://www.w3.org/2000/svg"
   xmlns:xlink="http://www.w3.org/1999/xlink"
   xmlns:sodipodi="http://sodipodi.sourceforge.net/DTD/sodipodi-0.dtd"
   xmlns:inkscape="http://www.inkscape.org/namespaces/inkscape"
   version="1.1"
   viewBox="0 0 24 24"
   id="svg5"
   sodipodi:docname="mute.svg"
   inkscape:export-filename="C:\Users\503112802\Documents\dev\YTMDesktop\images\actions\volume_mute\volumeOffImage.png"
   inkscape:export-xdpi="288"
   inkscape:export-ydpi="288"
   inkscape:version="1.0.1 (3bc2e813f5, 2020-09-07)"
   width="24"
   height="24">
  <metadata
     id="metadata11">
    <rdf:RDF>
      <cc:Work
         rdf:about="">
        <dc:format>image/svg+xml</dc:format>
        <dc:type
           rdf:resource="http://purl.org/dc/dcmitype/StillImage" />
        <dc:title></dc:title>
      </cc:Work>
    </rdf:RDF>
  </metadata>
  <defs
     id="defs9" />
  <sodipodi:namedview
     pagecolor="#1d1e1f"
     bordercolor="#666666"
     borderopacity="1"
     objecttolerance="10"
     gridtolerance="10"
     guidetolerance="10"
     inkscape:pageopacity="1"
     inkscape:pageshadow="2"
     inkscape:window-width="2560"
     inkscape:window-height="1377"
     id="namedview7"
     showgrid="false"
     inkscape:pagecheckerboard="false"
     showguides="true"
     inkscape:guide-bbox="true"
     inkscape:zoom="19.79899"
     inkscape:cx="8.1874003"
     inkscape:cy="25.032372"
     inkscape:window-x="-8"
     inkscape:window-y="-8"
     inkscape:window-maximized="1"
     inkscape:current-layer="svg5">
    <sodipodi:guide
       position="3.2324881,19"
       orientation="0,1"
       id="guide846"
       inkscape:label=""
       inkscape:locked="false"
       inkscape:color="rgb(0,0,255)" />
  </sodipodi:namedview>
  <use
     class="ytp-svg-shadow"
     xlink:href="#ytp-id-1"
     id="use2"
     x="0"
     y="0"
     width="100%"
     height="100%" />
  <path
     class="ytp-svg-fill"
     d="m 15.741789,12.004016 c 0,-1.421902 -0.84814,-2.6429698 -2.078771,-3.2374376 v 1.7753696 l 2.037195,1.968169 c 0.02495,-0.160666 0.04157,-0.329366 0.04157,-0.5061 z m 2.07877,0 c 0,0.755135 -0.166302,1.462069 -0.449015,2.120803 l 1.255578,1.213035 c 0.548796,-0.996135 0.856453,-2.128836 0.856453,-3.333838 0,-3.4382698 -2.486208,-6.3142077 -5.820557,-7.0372086 v 1.6468354 c 2.403059,0.6908679 4.15754,2.8438041 4.157541,5.3903732 z M 5.5724408,4.7740072 4.5164252,5.7862085 8.4411445,9.5859796 H 4.5164252 v 4.8200084 h 3.3260333 l 4.1575425,4.01667 v -5.406441 l 3.53391,3.414172 c -0.55711,0.417735 -1.180743,0.747102 -1.870893,0.947934 v 1.65487 c 1.147481,-0.249033 2.186867,-0.763168 3.068265,-1.454035 l 1.696276,1.646835 1.056016,-1.020236 L 12,10.975748 5.5807563,4.7740072 Z m 6.4192452,0.7953009 -1.737854,1.6709353 1.737854,1.6789687 V 5.5773414 Z"
     id="ytp-id-1"
     style="stroke-width:0.817292" />
  <path
     style="fill:#d8d8d8;stroke-width:0.0291892"
     d="m 17.579766,18.399014 -0.85119,-0.822347 -0.262354,0.188666 c -0.733124,0.52721 -1.545528,0.918832 -2.397878,1.155906 -0.196418,0.05463 -0.367567,0.09933 -0.380334,0.09933 -0.01276,0 -0.0232,-0.366372 -0.0232,-0.814161 v -0.814163 l 0.274691,-0.09538 c 0.15108,-0.05246 0.424918,-0.168831 0.608526,-0.258609 0.322615,-0.157748 0.882852,-0.49804 0.951493,-0.577946 0.02667,-0.03106 -0.326173,-0.386455 -1.732114,-1.744614 l -1.765623,-1.705607 v 2.696739 2.696742 L 9.930358,16.402483 7.8589329,14.401397 H 6.1885691 4.5182071 V 11.991392 9.5813908 H 6.4855314 8.4528547 L 6.4930501,7.6878256 4.5332446,5.7942612 5.0529071,5.2922067 5.5725695,4.7901519 l 6.9489055,6.7135011 6.948905,6.713502 -0.519712,0.502106 -0.519714,0.502101 z"
     id="path836" />
  <path
     style="fill:#d8d8d8;stroke-width:0.0291892"
     d="m 17.993113,14.724163 -0.615661,-0.595326 0.08922,-0.221956 c 0.369105,-0.91822 0.453888,-2.037268 0.232866,-3.073555 C 17.523445,10.007689 17.081161,9.1166934 16.515327,8.4476918 15.853484,7.6651754 14.934019,7.0363365 13.960977,6.7007267 l -0.28133,-0.097031 -0.0079,-0.8063944 c -0.0068,-0.6851277 -0.0014,-0.8063934 0.03475,-0.8063934 0.08075,0 0.749408,0.1965943 1.029176,0.3025936 0.615849,0.2333368 1.471444,0.7099275 1.937175,1.0790621 1.244697,0.9865372 2.12174,2.2724433 2.528956,3.7079134 0.467038,1.646338 0.316657,3.428476 -0.414839,4.916248 -0.08728,0.177522 -0.163083,0.322767 -0.168449,0.322767 -0.0055,0 -0.2868,-0.267897 -0.625412,-0.595328 z"
     id="path838" />
  <path
     style="fill:#d8d8d8;stroke-width:0.0291892"
     d="m 14.6658,11.509609 -1.001879,-0.968246 0.0079,-0.8824504 0.0079,-0.8824491 0.217184,0.1255734 c 0.951926,0.5503834 1.619811,1.4945381 1.789616,2.5298901 0.04288,0.261462 0.0486,0.980849 0.0081,1.019975 -0.01603,0.01547 -0.431248,-0.364856 -1.028744,-0.942292 z"
     id="path840" />
  <path
     style="fill:#d8d8d8;stroke-width:0.0291892"
     d="m 11.111815,8.0473713 -0.845422,-0.8171752 0.845422,-0.7996371 0.845423,-0.7996375 0.0079,0.8153113 c 0.0043,0.4484205 0.0043,1.1759864 0,1.6168127 l -0.0079,0.8015022 z"
     id="path842" />
</svg>
