<?xml version="1.0" encoding="UTF-8" standalone="no"?>
<svg
   xmlns:dc="http://purl.org/dc/elements/1.1/"
   xmlns:cc="http://creativecommons.org/ns#"
   xmlns:rdf="http://www.w3.org/1999/02/22-rdf-syntax-ns#"
   xmlns:svg="http://www.w3.org/2000/svg"
   xmlns="http://www.w3.org/2000/svg"
   xmlns:sodipodi="http://sodipodi.sourceforge.net/DTD/sodipodi-0.dtd"
   xmlns:inkscape="http://www.inkscape.org/namespaces/inkscape"
   viewBox="0 0 24 24"
   preserveAspectRatio="xMidYMid meet"
   focusable="false"
   class="style-scope iron-icon"
   style="pointer-events: none; display: block; width: 100%; height: 100%;"
   version="1.1"
   id="svg6"
   sodipodi:docname="next_song.svg"
   inkscape:version="1.0.1 (3bc2e813f5, 2020-09-07)"
   inkscape:export-filename="C:\Users\503112802\Documents\dev\YTMDesktop\images\actions\next_track\nextTrackIcon.png"
   inkscape:export-xdpi="80"
   inkscape:export-ydpi="80">
  <metadata
     id="metadata12">
    <rdf:RDF>
      <cc:Work
         rdf:about="">
        <dc:format>image/svg+xml</dc:format>
        <dc:type
           rdf:resource="http://purl.org/dc/dcmitype/StillImage" />
        <dc:title></dc:title>
      </cc:Work>
    </rdf:RDF>
  </metadata>
  <defs
     id="defs10" />
  <sodipodi:namedview
     pagecolor="#ffffff"
     bordercolor="#666666"
     borderopacity="1"
     objecttolerance="10"
     gridtolerance="10"
     guidetolerance="10"
     inkscape:pageopacity="0"
     inkscape:pageshadow="2"
     inkscape:window-width="2560"
     inkscape:window-height="1361"
     id="namedview8"
     showgrid="false"
     inkscape:pagecheckerboard="true"
     inkscape:zoom="42"
     inkscape:cx="6.8452381"
     inkscape:cy="11.952381"
     inkscape:window-x="3831"
     inkscape:window-y="-9"
     inkscape:window-maximized="1"
     inkscape:current-layer="svg6"
     inkscape:document-rotation="0" />
  <g
     class="style-scope iron-icon"
     id="g4">
    <path
       d="M6 18l8.5-6L6 6v12zM16 6v12h2V6h-2z"
       class="style-scope iron-icon"
       id="path2" />
  </g>
  <path
     style="fill:#ffffff;stroke-width:0.0238095"
     d="M 6.0119048,11.998445 V 6.0302376 l 0.065476,0.042738 c 0.050894,0.03322 7.7601442,5.4710924 8.2812992,5.8413784 l 0.120585,0.08568 -4.198891,2.963843 c -2.3093911,1.630113 -4.2145472,2.972602 -4.2336809,2.98331 -0.030471,0.01705 -0.034789,-0.72124 -0.034789,-5.948738 z"
     id="path14" />
  <path
     style="fill:#ffffff;stroke-width:0.0238095"
     d="M 16.011905,12 V 6.0119048 H 17 17.988095 V 12 17.988095 H 17 16.011905 Z"
     id="path16" />
  <path
     style="fill:#ffffff;stroke-width:0.0238095"
     d="M 16.011905,12 V 6.0119048 H 17 17.988095 V 12 17.988095 H 17 16.011905 Z"
     id="path18" />
  <path
     style="fill:#d8d8d8;stroke-width:0.0238095"
     d="m 6.0277368,15.615107 c -0.00871,-1.25931 -0.015832,-3.927966 -0.015832,-5.9303472 V 6.0440673 l 0.2202381,0.1536393 c 1.6142421,1.126104 8.1964281,5.7855434 8.1964281,5.8021394 0,0.01227 -0.632142,0.468679 -1.404761,1.01425 -4.1514848,2.931498 -6.9389568,4.890666 -6.9583593,4.890666 -0.013041,0 -0.028278,-0.925041 -0.037714,-2.289655 z"
     id="path1415" />
  <path
     style="fill:#d8d8d8;stroke-width:0.0238095"
     d="M 16.011905,12 V 6.0238095 H 17 17.988095 V 12 17.97619 H 17 16.011905 Z"
     id="path1417" />
</svg>
