<?xml version="1.0" encoding="UTF-8" standalone="no"?>
<svg
   xmlns:dc="http://purl.org/dc/elements/1.1/"
   xmlns:cc="http://creativecommons.org/ns#"
   xmlns:rdf="http://www.w3.org/1999/02/22-rdf-syntax-ns#"
   xmlns:svg="http://www.w3.org/2000/svg"
   xmlns="http://www.w3.org/2000/svg"
   xmlns:sodipodi="http://sodipodi.sourceforge.net/DTD/sodipodi-0.dtd"
   xmlns:inkscape="http://www.inkscape.org/namespaces/inkscape"
   viewBox="0 0 24 24"
   preserveAspectRatio="xMidYMid meet"
   focusable="false"
   class="style-scope iron-icon"
   style="pointer-events: none; display: block; width: 100%; height: 100%;"
   version="1.1"
   id="svg6"
   sodipodi:docname="thumbs_down_outline.svg"
   inkscape:export-filename="C:\Users\503112802\Documents\dev\YTMDesktop\images\actions\thumbs_down\thumbsDownOutlineImage@2x.png"
   inkscape:export-xdpi="576"
   inkscape:export-ydpi="576"
   inkscape:version="1.0.1 (3bc2e813f5, 2020-09-07)">
  <metadata
     id="metadata12">
    <rdf:RDF>
      <cc:Work
         rdf:about="">
        <dc:format>image/svg+xml</dc:format>
        <dc:type
           rdf:resource="http://purl.org/dc/dcmitype/StillImage" />
        <dc:title></dc:title>
      </cc:Work>
    </rdf:RDF>
  </metadata>
  <defs
     id="defs10" />
  <sodipodi:namedview
     pagecolor="#1d1e1f"
     bordercolor="#666666"
     borderopacity="1"
     objecttolerance="10"
     gridtolerance="10"
     guidetolerance="10"
     inkscape:pageopacity="1"
     inkscape:pageshadow="2"
     inkscape:window-width="1770"
     inkscape:window-height="1371"
     id="namedview8"
     showgrid="false"
     inkscape:pagecheckerboard="false"
     inkscape:zoom="42"
     inkscape:cx="12"
     inkscape:cy="12"
     inkscape:window-x="0"
     inkscape:window-y="0"
     inkscape:window-maximized="0"
     inkscape:current-layer="svg6" />
  <g
     class="style-scope iron-icon"
     id="g4">
    <path
       d="M14.9 3H6c-.8 0-1.5.5-1.8 1.2l-3 7.3c-.1.2-.2.4-.2.7v2c0 1.1.9 2 2 2h6.3l-1 4.7v.3c0 .4.2.8.4 1.1.6.7 1.5.7 2.1.1l5.5-5.7c.4-.4.6-.9.6-1.4V5c0-1.1-.9-2-2-2zm-.2 12.6l-3.5 3.6c-.2.2-.5 0-.4-.2l1-4.6H4c-.6 0-1-.5-1-1v-1.1l2.7-6.6c.2-.5.6-.7 1-.7H14c.5 0 1 .5 1 1v8.8c-.1.3-.2.6-.3.8zM19 3h4v12h-4V3z"
       class="style-scope iron-icon"
       id="path2" />
  </g>
  <path
     style="fill:#d8d8d8;stroke-width:0.0238095"
     d="M 19.011905,9 V 3 H 21 22.988095 v 6 6 H 21 19.011905 Z"
     id="path837" />
  <path
     style="fill:#d8d8d8;stroke-width:0.0238095"
     d="M 9.6309524,22.817625 C 9.3597807,22.775609 9.0600786,22.628293 8.8524174,22.434943 8.6836579,22.277814 8.5291188,22.024267 8.413171,21.714286 8.3451452,21.532422 8.3364343,21.479318 8.3272488,21.190476 L 8.3170269,20.869048 8.8073231,18.566765 C 9.0769857,17.300509 9.297619,16.24783 9.297619,16.227479 c 0,-0.03328 -0.3239202,-0.03702 -3.220238,-0.03718 -2.14047,-1.19e-4 -3.2721309,-0.0086 -3.375,-0.02526 C 2.2789524,16.096439 1.9306358,15.917507 1.6163227,15.607141 1.2966167,15.291449 1.113466,14.94574 1.0369221,14.513482 c -0.015203,-0.08585 -0.025017,-0.595303 -0.025017,-1.298569 0,-1.252321 0.00308,-1.288365 0.1341982,-1.572058 C 1.1793919,11.570833 1.8869954,9.8565476 2.7185551,7.8333333 3.5501148,5.810119 4.2565555,4.1065476 4.2884233,4.047619 4.5439738,3.5750653 5.0201417,3.2070178 5.5595238,3.065139 l 0.202381,-0.053234 h 4.6904762 4.690476 l 0.207363,0.052894 c 0.720937,0.1838976 1.239066,0.6792445 1.463854,1.3994864 l 0.06688,0.2142857 v 5.4523809 5.452381 l -0.05496,0.190477 c -0.0732,0.253674 -0.189236,0.490003 -0.333171,0.678571 -0.157897,0.206859 -5.714479,5.962479 -5.870538,6.080822 -0.288491,0.218768 -0.6835409,0.332112 -0.9913266,0.284422 z m 1.5201356,-3.571197 c 0.03476,-0.02161 0.849979,-0.849368 1.811601,-1.839467 1.928034,-1.985131 1.772207,-1.799376 1.95558,-2.331176 l 0.09424,-0.273307 -0.0063,-4.502429 L 15,5.797619 14.923178,5.635426 C 14.820767,5.4192071 14.60747,5.1981274 14.399364,5.092498 L 14.240582,5.0119048 H 10.321437 6.4022921 L 6.2208695,5.1015687 C 6.0129364,5.2043349 5.8555524,5.3614714 5.7512212,5.5704788 5.7150081,5.643025 5.0784902,7.1865502 4.3367371,9.0005348 l -1.3486419,3.2981542 5.822e-4,0.606608 c 3.202e-4,0.333634 0.011414,0.653593 0.024654,0.711021 0.068188,0.295772 0.2886183,0.569962 0.5625012,0.699684 l 0.1622631,0.07686 4.0178572,0.0063 c 3.3881871,0.0053 4.0178581,0.01142 4.0178581,0.03899 0,0.01799 -0.225,1.066751 -0.5,2.330586 -0.275001,1.263834 -0.5,2.319441 -0.5,2.345792 0,0.02635 0.03297,0.07565 0.07326,0.109553 0.08608,0.07243 0.208933,0.08147 0.304024,0.02235 z"
     id="path839" />
</svg>
