<?xml version="1.0" encoding="UTF-8" standalone="no"?>
<svg
   xmlns:dc="http://purl.org/dc/elements/1.1/"
   xmlns:cc="http://creativecommons.org/ns#"
   xmlns:rdf="http://www.w3.org/1999/02/22-rdf-syntax-ns#"
   xmlns:svg="http://www.w3.org/2000/svg"
   xmlns="http://www.w3.org/2000/svg"
   xmlns:sodipodi="http://sodipodi.sourceforge.net/DTD/sodipodi-0.dtd"
   xmlns:inkscape="http://www.inkscape.org/namespaces/inkscape"
   viewBox="0 0 24 24"
   preserveAspectRatio="xMidYMid meet"
   focusable="false"
   class="style-scope iron-icon"
   style="pointer-events: none; display: block; width: 100%; height: 100%;"
   version="1.1"
   id="svg6"
   sodipodi:docname="thumbs_up_outline.svg"
   inkscape:export-filename="C:\Users\503112802\Documents\dev\YTMDesktop\images\actions\thumbs_up\thumbsUpOutlineImage.png"
   inkscape:export-xdpi="288"
   inkscape:export-ydpi="288"
   inkscape:version="1.0.1 (3bc2e813f5, 2020-09-07)">
  <metadata
     id="metadata12">
    <rdf:RDF>
      <cc:Work
         rdf:about="">
        <dc:format>image/svg+xml</dc:format>
        <dc:type
           rdf:resource="http://purl.org/dc/dcmitype/StillImage" />
        <dc:title></dc:title>
      </cc:Work>
    </rdf:RDF>
  </metadata>
  <defs
     id="defs10" />
  <sodipodi:namedview
     pagecolor="#1d1e1f"
     bordercolor="#666666"
     borderopacity="1"
     objecttolerance="10"
     gridtolerance="10"
     guidetolerance="10"
     inkscape:pageopacity="1"
     inkscape:pageshadow="2"
     inkscape:window-width="2560"
     inkscape:window-height="1377"
     id="namedview8"
     showgrid="false"
     inkscape:zoom="42"
     inkscape:cx="12"
     inkscape:cy="12"
     inkscape:window-x="-8"
     inkscape:window-y="-8"
     inkscape:window-maximized="1"
     inkscape:current-layer="svg6" />
  <g
     class="style-scope iron-icon"
     id="g4">
    <path
       d="M9 21h9c.8 0 1.5-.5 1.8-1.2l3-7.3c.1-.2.2-.4.2-.7V9.7c0-1.1-.9-2.1-2-2.1h-6.3l1-4.7v-.3c0-.4-.2-.8-.4-1.1-.6-.6-1.5-.5-2.1.1L7.6 7.3c-.4.4-.6.9-.6 1.4V19c0 1.1.9 2 2 2zm.3-12.6l3.5-3.6c.2-.2.5 0 .4.2l-1 4.7H20c.6 0 1 .5 1 1v1l-2.7 6.7c-.2.3-.6.6-1 .6H10c-.6 0-1-.5-1-1V9.2c0-.4.1-.6.3-.8zM5 21H1V9h4v12z"
       class="style-scope iron-icon"
       id="path2" />
  </g>
  <path
     style="fill:#d8d8d8;stroke-width:0.0238095"
     d="M 8.7836087,20.975169 C 8.4436837,20.941583 8.0702648,20.787641 7.772003,20.558134 7.448092,20.30889 7.2056063,19.9402 7.0682433,19.488095 7.0268833,19.351967 7.0245039,19.09067 7.0177253,13.940476 7.0112954,9.0552571 7.014286,8.5174045 7.0488365,8.3452381 7.0984876,8.0978257 7.2044981,7.845946 7.3514472,7.6262388 7.4380063,7.4968221 8.2285811,6.6768081 10.326436,4.5404683 c 1.571406,-1.6002338 2.921887,-2.9652884 3.001069,-3.0334548 0.294367,-0.253416 0.644729,-0.3883641 1.005753,-0.3873838 0.266267,7.229e-4 0.382196,0.026555 0.599702,0.1336267 0.259971,0.127976 0.384406,0.2622562 0.540146,0.5828787 0.169904,0.3497811 0.205465,0.4948701 0.205465,0.8382872 0,0.2668978 -0.01385,0.3397347 -0.488095,2.5671508 -0.268452,1.2608526 -0.488095,2.3115876 -0.488095,2.3349669 0,0.040597 0.146942,0.042508 3.270001,0.042508 3.204395,0 3.273779,9.667e-4 3.458333,0.048164 0.70614,0.1805878 1.257711,0.7360078 1.489064,1.499455 0.0529,0.1745747 0.0543,0.2074869 0.06253,1.47048 0.0092,1.407012 0.0078,1.425847 -0.128175,1.719996 -0.03328,0.07202 -0.740942,1.786309 -1.572571,3.809524 -0.83163,2.023214 -1.538126,3.726785 -1.569991,3.785714 -0.252268,0.466526 -0.721117,0.832206 -1.25919,0.982107 l -0.190476,0.05306 -4.642857,0.0033 c -2.553572,0.0018 -4.7295193,-0.0052 -4.8354393,-0.01571 z m 8.9257603,-2.063688 c 0.185121,-0.08768 0.397233,-0.248311 0.512954,-0.388444 0.06083,-0.07366 0.397299,-0.884751 1.434524,-3.458034 l 1.355058,-3.361804 v -0.540904 c 0,-0.31012 -0.01143,-0.594736 -0.02679,-0.667075 -0.05719,-0.269322 -0.2455,-0.5346419 -0.474831,-0.6690124 -0.243508,-0.1426769 -0.0216,-0.1357314 -4.336713,-0.1357314 -3.216625,0 -3.947379,-0.00571 -3.947379,-0.030855 0,-0.01697 0.225,-1.0872803 0.5,-2.3784665 0.275,-1.2911862 0.5,-2.3692059 0.5,-2.3955997 0,-0.026394 -0.03297,-0.075727 -0.07326,-0.1096288 -0.08605,-0.072407 -0.208874,-0.081466 -0.30402,-0.022423 -0.08399,0.05212 -3.6322262,3.7103095 -3.7052511,3.8200702 C 9.1123827,8.620586 9.0672634,8.7170145 9.0433958,8.7878588 9.001995,8.9107452 9,9.1306548 9,13.571429 v 4.654761 l 0.053402,0.130953 c 0.1098244,0.269312 0.3480406,0.504366 0.6013601,0.593377 0.1275645,0.04482 0.2313538,0.0459 4.0119049,0.0418 l 3.880952,-0.0042 z"
     id="path837" />
  <path
     style="fill:#d8d8d8;stroke-width:0.0238095"
     d="M 1.0119048,15 V 9 H 3 4.9880952 v 6 6 H 3 1.0119048 Z"
     id="path839" />
</svg>
