<?xml version="1.0" encoding="UTF-8" standalone="no"?>
<svg
   xmlns:dc="http://purl.org/dc/elements/1.1/"
   xmlns:cc="http://creativecommons.org/ns#"
   xmlns:rdf="http://www.w3.org/1999/02/22-rdf-syntax-ns#"
   xmlns:svg="http://www.w3.org/2000/svg"
   xmlns="http://www.w3.org/2000/svg"
   xmlns:sodipodi="http://sodipodi.sourceforge.net/DTD/sodipodi-0.dtd"
   xmlns:inkscape="http://www.inkscape.org/namespaces/inkscape"
   viewBox="0 0 24 24"
   preserveAspectRatio="xMidYMid meet"
   focusable="false"
   class="style-scope iron-icon"
   style="pointer-events: none; display: block; width: 100%; height: 100%;"
   version="1.1"
   id="svg6"
   sodipodi:docname="thumbs_down_filled.svg"
   inkscape:export-filename="C:\Users\503112802\Documents\dev\YTMDesktop\images\actions\thumbs_down\thumbsDownImage@2x.png"
   inkscape:export-xdpi="576"
   inkscape:export-ydpi="576"
   inkscape:version="1.0.1 (3bc2e813f5, 2020-09-07)">
  <metadata
     id="metadata12">
    <rdf:RDF>
      <cc:Work
         rdf:about="">
        <dc:format>image/svg+xml</dc:format>
        <dc:type
           rdf:resource="http://purl.org/dc/dcmitype/StillImage" />
        <dc:title></dc:title>
      </cc:Work>
    </rdf:RDF>
  </metadata>
  <defs
     id="defs10" />
  <sodipodi:namedview
     pagecolor="#1d1e1f"
     bordercolor="#666666"
     borderopacity="1"
     objecttolerance="10"
     gridtolerance="10"
     guidetolerance="10"
     inkscape:pageopacity="1"
     inkscape:pageshadow="2"
     inkscape:window-width="1777"
     inkscape:window-height="1368"
     id="namedview8"
     showgrid="false"
     inkscape:pagecheckerboard="false"
     inkscape:zoom="45.254834"
     inkscape:cx="15.888984"
     inkscape:cy="4.4531354"
     inkscape:window-x="0"
     inkscape:window-y="0"
     inkscape:window-maximized="0"
     inkscape:current-layer="svg6"
     inkscape:document-rotation="0"
     showguides="true"
     inkscape:guide-bbox="true">
    <sodipodi:guide
       position="11.452381,19"
       orientation="0,1"
       id="guide833"
       inkscape:label=""
       inkscape:locked="false"
       inkscape:color="rgb(0,0,255)" />
  </sodipodi:namedview>
  <g
     class="style-scope iron-icon"
     id="g4"
     transform="matrix(0.69980143,0,0,0.69980143,3.6023829,2.9025813)">
    <path
       d="M 15,3 H 6 C 5.17,3 4.46,3.5 4.16,4.22 L 1.14,11.27 C 1.05,11.5 1,11.74 1,12 v 1.91 L 1.01,13.92 1,14 c 0,1.1 0.9,2 2,2 h 6.31 l -0.95,4.57 -0.03,0.32 c 0,0.41 0.17,0.79 0.44,1.06 L 9.83,23 16.42,16.41 C 16.78,16.05 17,15.55 17,15 V 5 C 17,3.9 16.1,3 15,3 Z m 4,0 v 12 h 4 V 3 Z"
       class="style-scope iron-icon"
       id="path2" />
  </g>
  <path
     style="fill:#d8d8d8;stroke-width:0.0166619"
     d="M 10.068763,18.577301 C 9.6326162,18.145092 9.5614358,18.053515 9.4901956,17.832983 9.4542317,17.721662 9.4468733,17.668128 9.4476091,17.52343 c 8.16e-4,-0.161271 0.027029,-0.300392 0.3352415,-1.779128 0.1838952,-0.882297 0.3343544,-1.615038 0.3343544,-1.62831 0,-0.02093 -0.3088803,-0.02476 -2.3285043,-0.02893 l -2.3285058,-0.0044 -0.1234568,-0.03808 c -0.490913,-0.151669 -0.8535965,-0.523153 -0.9872555,-1.011497 -0.035317,-0.129033 -0.03652,-0.161538 -0.037726,-1.016376 -0.00111,-0.783643 0.00203,-0.897102 0.027787,-1.007562 C 4.3840019,10.818462 6.5501314,5.7732593 6.654555,5.6171331 6.8346938,5.3478036 7.1081683,5.1544478 7.4486797,5.0556596 l 0.1275754,-0.037013 h 3.3740419 c 3.226971,0 3.378763,0.00133 3.482308,0.030683 0.51792,0.1467874 0.883883,0.5156612 1.020702,1.0288109 l 0.03738,0.1401648 v 3.6822894 3.6822883 l -0.03771,0.141622 c -0.04138,0.155521 -0.123029,0.339452 -0.205215,0.462271 -0.05082,0.07601 -4.742761,4.786236 -4.767603,4.786236 -0.0065,0 -0.191778,-0.178068 -0.411408,-0.395714 z"
     id="path837" />
  <path
     style="fill:#d8d8d8;stroke-width:0.0166619"
     d="M 16.898609,9.2007944 V 5.0103166 h 1.399603 1.399604 v 4.1904778 4.1904746 h -1.399604 -1.399603 z"
     id="path839" />
</svg>
