<?xml version="1.0" encoding="UTF-8" standalone="no"?>
<svg
   xmlns:dc="http://purl.org/dc/elements/1.1/"
   xmlns:cc="http://creativecommons.org/ns#"
   xmlns:rdf="http://www.w3.org/1999/02/22-rdf-syntax-ns#"
   xmlns:svg="http://www.w3.org/2000/svg"
   xmlns="http://www.w3.org/2000/svg"
   xmlns:sodipodi="http://sodipodi.sourceforge.net/DTD/sodipodi-0.dtd"
   xmlns:inkscape="http://www.inkscape.org/namespaces/inkscape"
   viewBox="0 0 24 24"
   preserveAspectRatio="xMidYMid meet"
   focusable="false"
   class="style-scope iron-icon"
   style="pointer-events: none; display: block; width: 100%; height: 100%;"
   version="1.1"
   id="svg6"
   sodipodi:docname="thumbs_up_outline.svg"
   inkscape:export-filename="C:\Users\503112802\Documents\dev\YTMDesktop\images\actions\thumbs_up\thumbsUpOutlineImage@2x.png"
   inkscape:export-xdpi="576"
   inkscape:export-ydpi="576"
   inkscape:version="1.0.1 (3bc2e813f5, 2020-09-07)">
  <metadata
     id="metadata12">
    <rdf:RDF>
      <cc:Work
         rdf:about="">
        <dc:format>image/svg+xml</dc:format>
        <dc:type
           rdf:resource="http://purl.org/dc/dcmitype/StillImage" />
        <dc:title></dc:title>
      </cc:Work>
    </rdf:RDF>
  </metadata>
  <defs
     id="defs10" />
  <sodipodi:namedview
     pagecolor="#1d1e1f"
     bordercolor="#666666"
     borderopacity="1"
     objecttolerance="10"
     gridtolerance="10"
     guidetolerance="10"
     inkscape:pageopacity="1"
     inkscape:pageshadow="2"
     inkscape:window-width="2560"
     inkscape:window-height="1377"
     id="namedview8"
     showgrid="false"
     inkscape:zoom="45.254834"
     inkscape:cx="14.161312"
     inkscape:cy="7.4567859"
     inkscape:window-x="-8"
     inkscape:window-y="-8"
     inkscape:window-maximized="1"
     inkscape:current-layer="svg6"
     inkscape:document-rotation="0"
     showguides="true"
     inkscape:guide-bbox="true">
    <sodipodi:guide
       position="17.047619,19"
       orientation="0,1"
       id="guide833"
       inkscape:label=""
       inkscape:locked="false"
       inkscape:color="rgb(0,0,255)" />
  </sodipodi:namedview>
  <g
     class="style-scope iron-icon"
     id="g4"
     transform="matrix(0.68807568,0,0,0.70282018,3.7430918,4.2349292)">
    <path
       d="m 9,21 h 9 c 0.8,0 1.5,-0.5 1.8,-1.2 l 3,-7.3 C 22.9,12.3 23,12.1 23,11.8 V 9.7 C 23,8.6 22.1,7.6 21,7.6 h -6.3 l 1,-4.7 V 2.6 C 15.7,2.2 15.5,1.8 15.3,1.5 14.7,0.9 13.8,1 13.2,1.6 L 7.6,7.3 C 7.2,7.7 7,8.2 7,8.7 V 19 c 0,1.1 0.9,2 2,2 z M 9.3,8.4 12.8,4.8 c 0.2,-0.2 0.5,0 0.4,0.2 l -1,4.7 H 20 c 0.6,0 1,0.5 1,1 v 1 l -2.7,6.7 c -0.2,0.3 -0.6,0.6 -1,0.6 H 10 C 9.4,19 9,18.5 9,18 V 9.2 C 9,8.8 9.1,8.6 9.3,8.4 Z M 5,21 H 1 V 9 h 4 z"
       class="style-scope iron-icon"
       id="path2" />
  </g>
  <path
     style="fill:#d8d8d8;stroke-width:0.0165572"
     d="M 9.7868789,18.976701 C 9.552985,18.953097 9.2960447,18.844904 9.0908179,18.6836 8.8679428,18.508425 8.7010941,18.249305 8.606578,17.931555 8.578122,17.835865 8.576481,17.652235 8.571816,14.032574 8.567416,10.599146 8.569456,10.221133 8.593221,10.100131 8.627386,9.9262445 8.7003284,9.7492183 8.8014402,9.5948035 8.8609992,9.5038455 9.404975,8.9275244 10.848455,7.4260615 c 1.081244,-1.1246762 2.01048,-2.0840642 2.064963,-2.1319729 0.202547,-0.178106 0.443621,-0.2729503 0.692033,-0.2722612 0.183213,5.08e-4 0.262983,0.018667 0.412642,0.093917 0.178878,0.089944 0.264498,0.1843188 0.371659,0.4096589 0.116909,0.2458333 0.141376,0.3478045 0.141376,0.5891648 0,0.1875815 -0.0094,0.2387726 -0.335845,1.8042457 -0.184711,0.8861523 -0.335847,1.6246302 -0.335847,1.6410619 0,0.028529 0.101112,0.029878 2.250009,0.029878 2.204865,0 2.252607,6.79e-4 2.379595,0.033855 0.485877,0.1269204 0.8654,0.5172833 1.024589,1.0538513 0.03641,0.122693 0.03739,0.145823 0.043,1.033478 0.0064,0.988878 0.0057,1.002115 -0.08822,1.20885 -0.02288,0.05063 -0.509825,1.255454 -1.082049,2.677412 -0.572225,1.421952 -1.058347,2.619258 -1.080271,2.660673 -0.17358,0.327886 -0.496185,0.584891 -0.86642,0.690244 l -0.131061,0.03732 -3.194638,0.0024 c -1.75705,0.0018 -3.2542644,-0.0034 -3.327145,-0.01103 z m 6.1416001,-1.450402 c 0.12738,-0.06162 0.273325,-0.174519 0.352952,-0.273007 0.04183,-0.05175 0.27337,-0.62182 0.987059,-2.430376 l 0.932381,-2.362743 v -0.380156 c 0,-0.217962 -0.0075,-0.417997 -0.01846,-0.468836 -0.03938,-0.189286 -0.168923,-0.375757 -0.326723,-0.470193 -0.167552,-0.10028 -0.01484,-0.0954 -2.983985,-0.0954 -2.213284,0 -2.716098,-0.0039 -2.716098,-0.02166 0,-0.0119 0.154819,-0.764164 0.344039,-1.6716364 0.189218,-0.9074715 0.344038,-1.6651254 0.344038,-1.6836755 0,-0.018548 -0.02264,-0.053223 -0.05041,-0.07705 -0.05923,-0.050891 -0.143722,-0.057258 -0.20919,-0.015763 -0.0578,0.036629 -2.499242,2.6076809 -2.549491,2.6848199 -0.02151,0.03302 -0.05257,0.100813 -0.068987,0.150605 -0.028481,0.08641 -0.02986,0.240927 -0.02986,3.36199 v 3.27146 l 0.036746,0.09202 c 0.075567,0.189277 0.239476,0.354476 0.413778,0.417038 0.08781,0.03148 0.159191,0.03223 2.760496,0.02937 l 2.670387,-0.0024 z"
     id="path837" />
  <path
     style="fill:#d8d8d8;stroke-width:0.0165572"
     d="m 4.4393589,14.777232 v -4.216921 h 1.3679596 1.36796 v 4.216921 4.216923 h -1.36796 -1.3679596 z"
     id="path839" />
</svg>
