<?xml version="1.0" encoding="UTF-8" standalone="no"?>
<svg
   xmlns:dc="http://purl.org/dc/elements/1.1/"
   xmlns:cc="http://creativecommons.org/ns#"
   xmlns:rdf="http://www.w3.org/1999/02/22-rdf-syntax-ns#"
   xmlns:svg="http://www.w3.org/2000/svg"
   xmlns="http://www.w3.org/2000/svg"
   xmlns:sodipodi="http://sodipodi.sourceforge.net/DTD/sodipodi-0.dtd"
   xmlns:inkscape="http://www.inkscape.org/namespaces/inkscape"
   viewBox="0 0 24 24"
   preserveAspectRatio="xMidYMid meet"
   focusable="false"
   class="style-scope iron-icon"
   style="pointer-events: none; display: block; width: 100%; height: 100%;"
   version="1.1"
   id="svg6"
   sodipodi:docname="thumbs_down_outline.svg"
   inkscape:export-filename="C:\Users\503112802\Documents\dev\YTMDesktop\images\actions\thumbs_down\thumbsDownOutlineImage.png"
   inkscape:export-xdpi="288"
   inkscape:export-ydpi="288"
   inkscape:version="1.0.1 (3bc2e813f5, 2020-09-07)">
  <metadata
     id="metadata12">
    <rdf:RDF>
      <cc:Work
         rdf:about="">
        <dc:format>image/svg+xml</dc:format>
        <dc:type
           rdf:resource="http://purl.org/dc/dcmitype/StillImage" />
        <dc:title></dc:title>
      </cc:Work>
    </rdf:RDF>
  </metadata>
  <defs
     id="defs10" />
  <sodipodi:namedview
     pagecolor="#1d1e1f"
     bordercolor="#666666"
     borderopacity="1"
     objecttolerance="10"
     gridtolerance="10"
     guidetolerance="10"
     inkscape:pageopacity="1"
     inkscape:pageshadow="2"
     inkscape:window-width="1770"
     inkscape:window-height="1371"
     id="namedview8"
     showgrid="false"
     inkscape:pagecheckerboard="false"
     inkscape:zoom="42"
     inkscape:cx="12"
     inkscape:cy="12"
     inkscape:window-x="0"
     inkscape:window-y="0"
     inkscape:window-maximized="0"
     inkscape:current-layer="svg6"
     inkscape:document-rotation="0"
     showguides="true"
     inkscape:guide-bbox="true">
    <sodipodi:guide
       position="15.452381,19"
       orientation="0,1"
       id="guide833"
       inkscape:label=""
       inkscape:locked="false"
       inkscape:color="rgb(0,0,255)" />
  </sodipodi:namedview>
  <g
     class="style-scope iron-icon"
     id="g4"
     transform="matrix(0.7091655,0,0,0.7091655,3.490014,2.8382123)">
    <path
       d="M 14.9,3 H 6 C 5.2,3 4.5,3.5 4.2,4.2 l -3,7.3 C 1.1,11.7 1,11.9 1,12.2 v 2 c 0,1.1 0.9,2 2,2 h 6.3 l -1,4.7 v 0.3 c 0,0.4 0.2,0.8 0.4,1.1 0.6,0.7 1.5,0.7 2.1,0.1 l 5.5,-5.7 c 0.4,-0.4 0.6,-0.9 0.6,-1.4 V 5 c 0,-1.1 -0.9,-2 -2,-2 z m -0.2,12.6 -3.5,3.6 c -0.2,0.2 -0.5,0 -0.4,-0.2 l 1,-4.6 H 4 c -0.6,0 -1,-0.5 -1,-1 V 12.3 L 5.7,5.7 C 5.9,5.2 6.3,5 6.7,5 H 14 c 0.5,0 1,0.5 1,1 v 8.8 c -0.1,0.3 -0.2,0.6 -0.3,0.8 z M 19,3 h 4 v 12 h -4 z"
       class="style-scope iron-icon"
       id="path2" />
  </g>
  <path
     style="fill:#d8d8d8;stroke-width:0.0168849"
     d="M 16.972601,9.2207015 V 4.9657087 h 1.409889 1.409887 V 9.2207015 13.475695 H 18.38249 16.972601 Z"
     id="path837" />
  <path
     style="fill:#d8d8d8;stroke-width:0.0168849"
     d="M 10.319954,19.019686 C 10.127648,18.989889 9.9151092,18.885418 9.7678431,18.7483 9.6481647,18.63687 9.5385708,18.457063 9.4563445,18.237235 9.4081031,18.108263 9.4019258,18.070604 9.3954115,17.865767 l -0.00725,-0.227946 0.3477011,-1.632699 c 0.1912354,-0.897985 0.3477004,-1.644509 0.3477004,-1.65894 0,-0.0236 -0.2297124,-0.02626 -2.2836811,-0.02636 -1.5179475,-8.6e-5 -2.3204823,-0.0061 -2.3934334,-0.01791 C 5.106166,14.25325 4.859152,14.126359 4.6362519,13.906258 4.4095275,13.68238 4.2796433,13.437215 4.225361,13.130674 4.214579,13.069784 4.20762,12.708504 4.20762,12.209772 4.20762,11.32167 4.2098,11.296108 4.302788,11.094923 4.3263947,11.043851 4.8282034,9.8281344 5.4179168,8.3933412 6.0076329,6.9585482 6.5086164,5.7504341 6.531216,5.7086441 6.7124435,5.3735253 7.0501253,5.1125186 7.4326365,5.011903 l 0.1435217,-0.037751 h 3.3263228 3.326325 l 0.147055,0.03751 c 0.511262,0.1304137 0.878702,0.4816965 1.038113,0.9924673 l 0.04744,0.1519641 v 3.8666419 3.866641 l -0.03898,0.135079 c -0.05192,0.179897 -0.1342,0.347494 -0.236274,0.48122 -0.111974,0.146697 -4.05251,4.228383 -4.163183,4.312309 -0.204587,0.155143 -0.484742,0.235522 -0.703014,0.201703 z m 1.078027,-2.532571 c 0.02465,-0.01532 0.602775,-0.602342 1.284724,-1.304486 1.367296,-1.407787 1.256788,-1.276056 1.38683,-1.653189 l 0.06683,-0.193821 -0.0045,-3.192968 -0.0043,-3.1929672 -0.05448,-0.1150218 C 14.00047,6.6813269 13.849211,6.5245447 13.70163,6.4496363 L 13.589027,6.3924823 H 10.80962 8.0302988 l -0.1286587,0.063586 c -0.147459,0.072878 -0.2590703,0.184314 -0.3330584,0.332535 -0.025681,0.051447 -0.4770776,1.1460619 -1.0031032,2.4324775 l -0.9564105,2.3389382 4.13e-4,0.430185 c 2.271e-4,0.236602 0.00809,0.463506 0.017484,0.504232 0.048356,0.209751 0.2046781,0.404197 0.3989063,0.496191 l 0.1150714,0.0545 2.8493258,0.0045 c 2.4027845,0.0038 2.8493255,0.0081 2.8493255,0.02765 0,0.01275 -0.159562,0.756503 -0.354582,1.652771 -0.195022,0.896267 -0.354584,1.644868 -0.354584,1.663555 0,0.01868 0.02337,0.05364 0.05195,0.07769 0.06106,0.05136 0.148169,0.05778 0.215604,0.01585 z"
     id="path839" />
</svg>
