<?xml version="1.0" encoding="UTF-8" standalone="no"?>
<svg
   xmlns:dc="http://purl.org/dc/elements/1.1/"
   xmlns:cc="http://creativecommons.org/ns#"
   xmlns:rdf="http://www.w3.org/1999/02/22-rdf-syntax-ns#"
   xmlns:svg="http://www.w3.org/2000/svg"
   xmlns="http://www.w3.org/2000/svg"
   xmlns:sodipodi="http://sodipodi.sourceforge.net/DTD/sodipodi-0.dtd"
   xmlns:inkscape="http://www.inkscape.org/namespaces/inkscape"
   viewBox="0 0 24 24"
   preserveAspectRatio="xMidYMid meet"
   focusable="false"
   class="style-scope iron-icon"
   style="pointer-events: none; display: block; width: 100%; height: 100%;"
   version="1.1"
   id="svg6"
   sodipodi:docname="thumbs_up_filled.svg"
   inkscape:export-filename="C:\Users\503112802\Documents\dev\YTMDesktop\images\actions\thumbs_up\thumbsUpImage@2x.png"
   inkscape:export-xdpi="576"
   inkscape:export-ydpi="576"
   inkscape:version="1.0.1 (3bc2e813f5, 2020-09-07)">
  <metadata
     id="metadata12">
    <rdf:RDF>
      <cc:Work
         rdf:about="">
        <dc:format>image/svg+xml</dc:format>
        <dc:type
           rdf:resource="http://purl.org/dc/dcmitype/StillImage" />
        <dc:title></dc:title>
      </cc:Work>
    </rdf:RDF>
  </metadata>
  <defs
     id="defs10" />
  <sodipodi:namedview
     pagecolor="#1d1e1f"
     bordercolor="#666666"
     borderopacity="1"
     objecttolerance="10"
     gridtolerance="10"
     guidetolerance="10"
     inkscape:pageopacity="1"
     inkscape:pageshadow="2"
     inkscape:window-width="1905"
     inkscape:window-height="1245"
     id="namedview8"
     showgrid="false"
     inkscape:pagecheckerboard="false"
     inkscape:zoom="118.79394"
     inkscape:cx="15.904372"
     inkscape:cy="7.8549518"
     inkscape:window-x="0"
     inkscape:window-y="0"
     inkscape:window-maximized="0"
     inkscape:current-layer="svg6"
     inkscape:document-rotation="0"
     showguides="true"
     inkscape:guide-bbox="true">
    <sodipodi:guide
       position="18.761905,19"
       orientation="0,1"
       id="guide833"
       inkscape:label=""
       inkscape:locked="false"
       inkscape:color="rgb(0,0,255)" />
  </sodipodi:namedview>
  <g
     class="style-scope iron-icon"
     id="g4"
     transform="matrix(0.70286601,0,0,0.70286601,3.5656084,4.2684746)">
    <path
       d="M 1,21 H 5 V 9 H 1 Z M 23,10 C 23,8.9 22.1,8 21,8 H 14.69 L 15.64,3.43 15.67,3.11 C 15.67,2.7 15.5,2.32 15.23,2.05 L 14.17,1 7.59,7.59 C 7.22,7.95 7,8.45 7,9 v 10 c 0,1.1 0.9,2 2,2 h 9 c 0.83,0 1.54,-0.5 1.84,-1.22 l 3.02,-7.05 C 22.95,12.5 23,12.26 23,12 v -1.91 l -0.01,-0.01 z"
       class="style-scope iron-icon"
       id="path2" />
  </g>
  <path
     style="fill:#d8d8d8;stroke-width:0.0167346"
     d="M 9.7393083,19.011225 C 9.5003424,18.987581 9.237903,18.879385 9.0282848,18.718089 8.8006133,18.542898 8.630149,18.283712 8.5336449,17.965993 c -0.02904,-0.09561 -0.030753,-0.276219 -0.035834,-3.773717 -0.00385,-2.668576 -1.578e-4,-3.709717 0.01359,-3.806392 0.010411,-0.07321 0.040716,-0.192781 0.067344,-0.265754 0.1096715,-0.3005068 -0.00144,-0.1814122 2.5767291,-2.7624421 l 2.372079,-2.3747335 0.42576,0.4251171 c 0.369709,0.3691521 0.43357,0.4405381 0.485095,0.5422609 0.106266,0.2097926 0.122259,0.2778477 0.119966,0.5104146 -0.0029,0.2035709 -0.01087,0.2514144 -0.330439,1.7822672 -0.180604,0.8651944 -0.332241,1.5897274 -0.336964,1.610073 l -0.0083,0.036992 2.322118,0.00523 2.322124,0.00523 0.132975,0.03742 c 0.51452,0.1447928 0.878119,0.5084368 1.024387,1.0245098 0.02823,0.09971 0.03083,0.185896 0.03083,1.037522 0,0.850089 -0.0037,0.938006 -0.03071,1.037567 -0.05268,0.186724 -2.215698,5.216237 -2.298546,5.34466 -0.190171,0.294791 -0.473153,0.49843 -0.833657,0.599917 l -0.133879,0.03771 -3.271679,0.0034 c -1.799419,0.0019 -3.3325836,-0.0052 -3.4070314,-0.01099 z"
     id="path837" />
  <path
     style="fill:#d8d8d8;stroke-width:0.0167346"
     d="m 4.2768419,14.811465 v -4.217198 h 1.3973642 1.3973648 v 4.217198 4.2172 H 5.6742061 4.2768419 Z"
     id="path839" />
</svg>
