<?xml version="1.0" encoding="UTF-8" standalone="no"?>
<svg
   xmlns:dc="http://purl.org/dc/elements/1.1/"
   xmlns:cc="http://creativecommons.org/ns#"
   xmlns:rdf="http://www.w3.org/1999/02/22-rdf-syntax-ns#"
   xmlns:svg="http://www.w3.org/2000/svg"
   xmlns="http://www.w3.org/2000/svg"
   xmlns:sodipodi="http://sodipodi.sourceforge.net/DTD/sodipodi-0.dtd"
   xmlns:inkscape="http://www.inkscape.org/namespaces/inkscape"
   viewBox="0 0 24 24"
   preserveAspectRatio="xMidYMid meet"
   focusable="false"
   class="style-scope iron-icon"
   style="pointer-events: none; display: block; width: 100%; height: 100%;"
   version="1.1"
   id="svg6"
   sodipodi:docname="thumbs_down_filled.svg"
   inkscape:export-filename="C:\Users\503112802\Documents\dev\YTMDesktop\images\actions\thumbs_down\thumbsDownImage.png"
   inkscape:export-xdpi="288"
   inkscape:export-ydpi="288"
   inkscape:version="1.0.1 (3bc2e813f5, 2020-09-07)">
  <metadata
     id="metadata12">
    <rdf:RDF>
      <cc:Work
         rdf:about="">
        <dc:format>image/svg+xml</dc:format>
        <dc:type
           rdf:resource="http://purl.org/dc/dcmitype/StillImage" />
        <dc:title></dc:title>
      </cc:Work>
    </rdf:RDF>
  </metadata>
  <defs
     id="defs10" />
  <sodipodi:namedview
     pagecolor="#1d1e1f"
     bordercolor="#666666"
     borderopacity="1"
     objecttolerance="10"
     gridtolerance="10"
     guidetolerance="10"
     inkscape:pageopacity="1"
     inkscape:pageshadow="2"
     inkscape:window-width="1777"
     inkscape:window-height="1368"
     id="namedview8"
     showgrid="false"
     inkscape:pagecheckerboard="false"
     inkscape:zoom="42"
     inkscape:cx="12"
     inkscape:cy="12"
     inkscape:window-x="-7"
     inkscape:window-y="0"
     inkscape:window-maximized="0"
     inkscape:current-layer="svg6" />
  <g
     class="style-scope iron-icon"
     id="g4">
    <path
       d="M15 3H6c-.83 0-1.54.5-1.84 1.22l-3.02 7.05c-.09.23-.14.47-.14.73v1.91l.01.01L1 14c0 1.1.9 2 2 2h6.31l-.95 4.57-.03.32c0 .41.17.79.44 1.06L9.83 23l6.59-6.59c.36-.36.58-.86.58-1.41V5c0-1.1-.9-2-2-2zm4 0v12h4V3h-4z"
       class="style-scope iron-icon"
       id="path2" />
  </g>
  <path
     style="fill:#d8d8d8;stroke-width:0.0238095"
     d="M 9.2403093,22.39881 C 8.6170648,21.781195 8.5153476,21.650338 8.4135481,21.3352 8.3621595,21.176118 8.3516345,21.099626 8.352684,20.892857 c 0.00117,-0.230451 0.03863,-0.429251 0.4790543,-2.542334 0.2627822,-1.260784 0.4777855,-2.307853 0.4777855,-2.32682 0,-0.02991 -0.441384,-0.03539 -3.3273809,-0.04131 l -3.327381,-0.0068 -0.1764169,-0.0544 C 1.7768516,15.704866 1.2585853,15.174025 1.0675895,14.47619 c -0.050466,-0.184384 -0.05219,-0.230835 -0.053909,-1.45238 -0.00158,-1.119805 0.0029,-1.281935 0.039705,-1.439779 0.06353,-0.27242 3.1588794,-7.481899 3.3080982,-7.7049997 C 4.6188979,3.4941659 5.0096864,3.2178648 5.4962698,3.0766984 L 5.6785714,3.0238095 H 10.5 c 4.611267,0 4.828172,0.00191 4.976134,0.043846 0.740094,0.209756 1.263051,0.7368679 1.458559,1.4701469 l 0.0534,0.2002924 V 10 15.261905 l -0.05385,0.202381 c -0.05913,0.222234 -0.175809,0.485062 -0.29325,0.660574 -0.07265,0.108579 -6.7772898,6.839426 -6.812792,6.839426 -0.0095,0 -0.2740478,-0.254465 -0.5878947,-0.565476 z"
     id="path837" />
  <path
     style="fill:#d8d8d8;stroke-width:0.0238095"
     d="M 19,9 V 3.0119048 h 2 2 V 9 14.988095 h -2 -2 z"
     id="path839" />
</svg>
