<?xml version="1.0" encoding="UTF-8" standalone="no"?>
<svg
   xmlns:dc="http://purl.org/dc/elements/1.1/"
   xmlns:cc="http://creativecommons.org/ns#"
   xmlns:rdf="http://www.w3.org/1999/02/22-rdf-syntax-ns#"
   xmlns:svg="http://www.w3.org/2000/svg"
   xmlns="http://www.w3.org/2000/svg"
   xmlns:sodipodi="http://sodipodi.sourceforge.net/DTD/sodipodi-0.dtd"
   xmlns:inkscape="http://www.inkscape.org/namespaces/inkscape"
   version="1.1"
   id="Capa_1"
   x="0px"
   y="0px"
   viewBox="0 0 512 512"
   style="enable-background:new 0 0 512 512;"
   xml:space="preserve"
   sodipodi:docname="volume-up-svgrepo-com.svg"
   inkscape:export-filename="C:\Users\503112802\Documents\dev\YTMDesktop\images\actions\volume_up\volumeUpImage@2x.png"
   inkscape:export-xdpi="27"
   inkscape:export-ydpi="27"
   inkscape:version="1.0.1 (3bc2e813f5, 2020-09-07)"><metadata
   id="metadata43"><rdf:RDF><cc:Work
       rdf:about=""><dc:format>image/svg+xml</dc:format><dc:type
         rdf:resource="http://purl.org/dc/dcmitype/StillImage" /><dc:title></dc:title></cc:Work></rdf:RDF></metadata><defs
   id="defs41" /><sodipodi:namedview
   pagecolor="#1d1e1f"
   bordercolor="#666666"
   borderopacity="1"
   objecttolerance="10"
   gridtolerance="10"
   guidetolerance="10"
   inkscape:pageopacity="1"
   inkscape:pageshadow="2"
   inkscape:window-width="2560"
   inkscape:window-height="1361"
   id="namedview39"
   showgrid="false"
   inkscape:pagecheckerboard="false"
   inkscape:zoom="1.96875"
   inkscape:cx="245.84127"
   inkscape:cy="254.98413"
   inkscape:window-x="622"
   inkscape:window-y="-9"
   inkscape:window-maximized="1"
   inkscape:current-layer="Capa_1" />
<g
   id="g6">
	<path
   d="M272,0h-48L80,160H32c-17.672,0-32,14.326-32,32v128c0,17.672,14.328,32,32,32h48l144,160h48c8.836,0,16-7.164,16-16V16   C288,7.164,280.836,0,272,0z"
   id="path2" />
	<path
   d="M480,224h-32v-32c0-17.672-14.328-32-32-32s-32,14.328-32,32v32h-32c-17.672,0-32,14.328-32,32s14.328,32,32,32h32v32   c0,17.672,14.328,32,32,32s32-14.328,32-32v-32h32c17.672,0,32-14.328,32-32S497.672,224,480,224z"
   id="path4" />
</g>
<g
   id="g8">
</g>
<g
   id="g10">
</g>
<g
   id="g12">
</g>
<g
   id="g14">
</g>
<g
   id="g16">
</g>
<g
   id="g18">
</g>
<g
   id="g20">
</g>
<g
   id="g22">
</g>
<g
   id="g24">
</g>
<g
   id="g26">
</g>
<g
   id="g28">
</g>
<g
   id="g30">
</g>
<g
   id="g32">
</g>
<g
   id="g34">
</g>
<g
   id="g36">
</g>
<path
   style="fill:#d8d8d8;stroke-width:0.507937"
   d="M 152.38095,432.0292 80.507937,352.05183 56.888889,352.02175 C 43.898413,352.0052 31.250347,351.76029 28.782076,351.47751 15.305003,349.93346 4.7361702,340.80752 1.1513804,327.61905 0.31426809,324.5393 0.25396825,319.727 0.25396825,256 c 0,-63.727 0.0602998,-68.5393 0.89741215,-71.61905 3.1241884,-11.49392 11.4196746,-19.86149 22.9756036,-23.17526 2.641897,-0.75759 6.602693,-0.91292 29.751904,-1.1668 L 80.583167,159.74603 152.35645,80 224.12974,0.25396825 h 25.20497 c 23.49774,0 25.39386,0.0657169 27.9936,0.97022105 3.83391,1.3338915 8.11361,5.6135895 9.4475,9.4474947 0.94976,2.729811 0.97022,7.90463 0.97022,245.328316 0,237.42369 -0.0205,242.59851 -0.97022,245.32831 -1.26275,3.62944 -5.58491,8.06003 -9.18851,9.41902 -2.34292,0.88355 -4.50729,0.96944 -27.93651,1.10852 l -25.39682,0.1507 z"
   id="path868" /><path
   style="fill:#d8d8d8;stroke-width:0.507937"
   d="m 412.08901,351.39863 c -10.12969,-1.05863 -19.91545,-8.00945 -24.53946,-17.43038 -3.01427,-6.14125 -3.17911,-7.46848 -3.42234,-27.55555 L 383.90425,288 l -15.3172,-0.004 c -8.42447,-0.002 -17.3367,-0.23554 -19.80497,-0.51832 -13.37224,-1.53204 -24.14641,-10.76914 -27.53232,-23.60449 -1.05184,-3.98732 -1.04541,-11.79761 0.013,-15.74604 3.00834,-11.22319 11.53941,-19.77488 22.86426,-22.91952 2.4988,-0.69387 6.35488,-0.88806 21.41288,-1.0784 l 18.36526,-0.23215 0.22252,-18.36115 c 0.18517,-15.27912 0.36767,-18.87272 1.08725,-21.40878 2.61382,-9.21206 8.61029,-16.54945 16.81686,-20.57743 4.46717,-2.19259 8.4947,-3.08093 13.96825,-3.08093 5.47355,0 9.50108,0.88834 13.96825,3.08093 8.20977,4.02955 14.2201,11.38632 16.81134,20.57743 0.71117,2.52255 0.8992,6.21105 1.09132,21.40881 l 0.2321,18.3612 18.3612,0.2321 c 15.05426,0.19031 18.91007,0.38453 21.40881,1.07837 11.32931,3.14588 19.89792,11.73948 22.85286,22.91952 1.03898,3.93097 1.04543,11.77581 0.0129,15.74604 -2.88776,11.10447 -11.45855,19.69054 -22.86582,22.90657 -2.52255,0.71117 -6.21105,0.8992 -21.40881,1.09132 l -18.36119,0.2321 -0.23211,18.3612 c -0.19212,15.19776 -0.38014,18.88626 -1.09132,21.40881 -3.79253,13.45213 -14.94031,22.73315 -28.49387,23.72242 -1.39683,0.10196 -4.18535,0.0134 -6.19671,-0.19681 z"
   id="path870" /></svg>
