<?xml version="1.0" encoding="UTF-8" standalone="no"?>
<svg
   xmlns:dc="http://purl.org/dc/elements/1.1/"
   xmlns:cc="http://creativecommons.org/ns#"
   xmlns:rdf="http://www.w3.org/1999/02/22-rdf-syntax-ns#"
   xmlns:svg="http://www.w3.org/2000/svg"
   xmlns="http://www.w3.org/2000/svg"
   xmlns:sodipodi="http://sodipodi.sourceforge.net/DTD/sodipodi-0.dtd"
   xmlns:inkscape="http://www.inkscape.org/namespaces/inkscape"
   version="1.1"
   id="Capa_1"
   x="0px"
   y="0px"
   viewBox="0 0 24 24"
   xml:space="preserve"
   sodipodi:docname="volume-up-svgrepo-com.svg"
   inkscape:export-filename="C:\Users\503112802\Documents\dev\YTMDesktop\images\actions\volume_up\volumeUpIcon.png"
   inkscape:export-xdpi="80"
   inkscape:export-ydpi="80"
   inkscape:version="1.0.1 (3bc2e813f5, 2020-09-07)"
   width="24"
   height="24"><metadata
   id="metadata43"><rdf:RDF><cc:Work
       rdf:about=""><dc:format>image/svg+xml</dc:format><dc:type
         rdf:resource="http://purl.org/dc/dcmitype/StillImage" /><dc:title></dc:title></cc:Work></rdf:RDF></metadata><defs
   id="defs41" /><sodipodi:namedview
   pagecolor="#ffffff"
   bordercolor="#666666"
   borderopacity="1"
   objecttolerance="10"
   gridtolerance="10"
   guidetolerance="10"
   inkscape:pageopacity="0"
   inkscape:pageshadow="2"
   inkscape:window-width="2560"
   inkscape:window-height="1377"
   id="namedview39"
   showgrid="false"
   inkscape:pagecheckerboard="true"
   inkscape:zoom="31.5"
   inkscape:cx="12.755671"
   inkscape:cy="13.131935"
   inkscape:window-x="-8"
   inkscape:window-y="-8"
   inkscape:window-maximized="1"
   inkscape:current-layer="Capa_1"
   inkscape:document-rotation="0"
   showguides="true"
   inkscape:guide-bbox="true"><sodipodi:guide
     position="10.412698,19"
     orientation="0,1"
     id="guide849"
     inkscape:label=""
     inkscape:locked="false"
     inkscape:color="rgb(0,0,255)" /></sodipodi:namedview>
<g
   id="g6"
   transform="matrix(0.02706065,0,0,0.02706065,5.0724736,5.072432)">
	<path
   d="M 272,0 H 224 L 80,160 H 32 C 14.328,160 0,174.326 0,192 v 128 c 0,17.672 14.328,32 32,32 h 48 l 144,160 h 48 c 8.836,0 16,-7.164 16,-16 V 16 C 288,7.164 280.836,0 272,0 Z"
   id="path2" />
	<path
   d="m 480,224 h -32 v -32 c 0,-17.672 -14.328,-32 -32,-32 -17.672,0 -32,14.328 -32,32 v 32 h -32 c -17.672,0 -32,14.328 -32,32 0,17.672 14.328,32 32,32 h 32 v 32 c 0,17.672 14.328,32 32,32 17.672,0 32,-14.328 32,-32 v -32 h 32 c 17.672,0 32,-14.328 32,-32 0,-17.672 -14.328,-32 -32,-32 z"
   id="path4" />
</g>
<g
   id="g8"
   transform="matrix(0.02706065,0,0,0.02706065,5.0724736,5.072432)">
</g>
<g
   id="g10"
   transform="matrix(0.02706065,0,0,0.02706065,5.0724736,5.072432)">
</g>
<g
   id="g12"
   transform="matrix(0.02706065,0,0,0.02706065,5.0724736,5.072432)">
</g>
<g
   id="g14"
   transform="matrix(0.02706065,0,0,0.02706065,5.0724736,5.072432)">
</g>
<g
   id="g16"
   transform="matrix(0.02706065,0,0,0.02706065,5.0724736,5.072432)">
</g>
<g
   id="g18"
   transform="matrix(0.02706065,0,0,0.02706065,5.0724736,5.072432)">
</g>
<g
   id="g20"
   transform="matrix(0.02706065,0,0,0.02706065,5.0724736,5.072432)">
</g>
<g
   id="g22"
   transform="matrix(0.02706065,0,0,0.02706065,5.0724736,5.072432)">
</g>
<g
   id="g24"
   transform="matrix(0.02706065,0,0,0.02706065,5.0724736,5.072432)">
</g>
<g
   id="g26"
   transform="matrix(0.02706065,0,0,0.02706065,5.0724736,5.072432)">
</g>
<g
   id="g28"
   transform="matrix(0.02706065,0,0,0.02706065,5.0724736,5.072432)">
</g>
<g
   id="g30"
   transform="matrix(0.02706065,0,0,0.02706065,5.0724736,5.072432)">
</g>
<g
   id="g32"
   transform="matrix(0.02706065,0,0,0.02706065,5.0724736,5.072432)">
</g>
<g
   id="g34"
   transform="matrix(0.02706065,0,0,0.02706065,5.0724736,5.072432)">
</g>
<g
   id="g36"
   transform="matrix(0.02706065,0,0,0.02706065,5.0724736,5.072432)">
</g>
<path
   style="fill:#d8d8d8;stroke-width:0.0137451"
   d="M 9.1960034,16.76343 7.2510722,14.59919 6.6119249,14.598401 c -0.3515309,-4.73e-4 -0.6937959,-0.0071 -0.7605891,-0.01475 -0.3646985,-0.04178 -0.6506982,-0.288736 -0.747705,-0.645624 -0.022653,-0.08334 -0.024285,-0.213565 -0.024285,-1.93806 0,-1.724495 0.00164,-1.854719 0.024285,-1.938059 0.084543,-0.3110333 0.309024,-0.5374666 0.6217351,-0.6271389 0.071492,-0.020505 0.1786733,-0.024703 0.8051065,-0.03157 L 7.253108,9.3952469 9.1953404,7.2372651 11.137574,5.0792846 h 0.682064 c 0.635864,0 0.687175,0.00178 0.757525,0.026257 0.103752,0.036101 0.219559,0.1519073 0.255657,0.2556557 0.0257,0.073873 0.02626,0.2139043 0.02626,6.6387497 0,6.424839 -5.56e-4,6.564875 -0.02626,6.638746 -0.03417,0.09822 -0.151132,0.218108 -0.248648,0.254885 -0.06339,0.02391 -0.121971,0.02623 -0.75598,0.02999 l -0.687256,0.004 z"
   id="path868" /><path
   style="fill:#d8d8d8;stroke-width:0.0137451"
   d="m 16.223878,14.581516 c -0.274117,-0.02866 -0.538926,-0.216742 -0.664055,-0.471678 -0.08157,-0.166186 -0.08603,-0.202103 -0.09261,-0.745673 l -0.0061,-0.498259 -0.414494,-1.08e-4 c -0.227971,-5.7e-5 -0.469143,-0.0064 -0.535936,-0.01403 -0.361862,-0.04146 -0.653418,-0.29142 -0.745042,-0.638754 -0.02846,-0.107898 -0.02829,-0.319251 3.5e-4,-0.426098 0.0814,-0.303707 0.312265,-0.535121 0.618723,-0.620217 0.06763,-0.01877 0.171967,-0.02402 0.579447,-0.02919 l 0.496976,-0.0063 0.0061,-0.496867 c 0.005,-0.413464 0.0099,-0.510708 0.02943,-0.579336 0.07075,-0.2492799 0.233006,-0.4478351 0.455081,-0.5568348 0.120886,-0.059333 0.229873,-0.083372 0.37799,-0.083372 0.148118,0 0.257107,0.024039 0.37799,0.083372 0.222164,0.1090483 0.384807,0.3081218 0.454927,0.5568398 0.01924,0.06826 0.02434,0.168076 0.02953,0.579337 l 0.0063,0.496867 0.496867,0.0063 c 0.407376,0.0051 0.511718,0.01047 0.579336,0.02919 0.30658,0.08513 0.538451,0.317677 0.618414,0.620217 0.02812,0.106385 0.02829,0.318662 3.48e-4,0.426098 -0.07814,0.300495 -0.310075,0.532839 -0.618763,0.619867 -0.06826,0.01924 -0.168075,0.02433 -0.579336,0.02953 l -0.496867,0.0063 -0.0063,0.496867 c -0.0052,0.411261 -0.01036,0.511074 -0.02953,0.579337 -0.102629,0.364022 -0.404295,0.615174 -0.771063,0.641944 -0.03779,0.0027 -0.113259,3.62e-4 -0.167688,-0.0053 z"
   id="path870" /></svg>
