<?xml version="1.0" encoding="UTF-8" standalone="no"?>
<svg
   xmlns:dc="http://purl.org/dc/elements/1.1/"
   xmlns:cc="http://creativecommons.org/ns#"
   xmlns:rdf="http://www.w3.org/1999/02/22-rdf-syntax-ns#"
   xmlns:svg="http://www.w3.org/2000/svg"
   xmlns="http://www.w3.org/2000/svg"
   xmlns:sodipodi="http://sodipodi.sourceforge.net/DTD/sodipodi-0.dtd"
   xmlns:inkscape="http://www.inkscape.org/namespaces/inkscape"
   version="1.1"
   id="Capa_1"
   x="0px"
   y="0px"
   viewBox="0 0 24 24"
   xml:space="preserve"
   sodipodi:docname="volume-down-svgrepo-com.svg"
   inkscape:export-filename="C:\Users\503112802\Documents\dev\YTMDesktop\images\actions\volume_down\volumeDownImage.png"
   inkscape:export-xdpi="288"
   inkscape:export-ydpi="288"
   inkscape:version="1.0.1 (3bc2e813f5, 2020-09-07)"
   width="24"
   height="24"><metadata
   id="metadata43"><rdf:RDF><cc:Work
       rdf:about=""><dc:format>image/svg+xml</dc:format><dc:type
         rdf:resource="http://purl.org/dc/dcmitype/StillImage" /><dc:title></dc:title></cc:Work></rdf:RDF></metadata><defs
   id="defs41" /><sodipodi:namedview
   pagecolor="#1d1e1f"
   bordercolor="#666666"
   borderopacity="1"
   objecttolerance="10"
   gridtolerance="10"
   guidetolerance="10"
   inkscape:pageopacity="1"
   inkscape:pageshadow="2"
   inkscape:window-width="2560"
   inkscape:window-height="1377"
   id="namedview39"
   showgrid="false"
   inkscape:pagecheckerboard="false"
   inkscape:zoom="32"
   inkscape:cx="11.326653"
   inkscape:cy="12.214216"
   inkscape:window-x="-8"
   inkscape:window-y="-8"
   inkscape:window-maximized="1"
   inkscape:current-layer="Capa_1"
   inkscape:document-rotation="0"
   showguides="true"
   inkscape:guide-bbox="true"><sodipodi:guide
     position="13.78125,19"
     orientation="0,1"
     id="guide849"
     inkscape:label=""
     inkscape:locked="false"
     inkscape:color="rgb(0,0,255)" /></sodipodi:namedview>
<g
   id="g6"
   transform="matrix(0.02760784,0,0,0.02760784,4.8646989,5)">
	<path
   d="M 272,0 H 224 L 80,160 H 32 C 14.328,160 0,174.326 0,192 v 128 c 0,17.672 14.328,32 32,32 h 48 l 144,160 h 48 c 8.836,0 16,-7.164 16,-16 V 16 C 288,7.164 280.836,0 272,0 Z"
   id="path2" />
	<path
   d="M 480,224 H 352 c -17.672,0 -32,14.328 -32,32 0,17.672 14.328,32 32,32 h 128 c 17.672,0 32,-14.328 32,-32 0,-17.672 -14.328,-32 -32,-32 z"
   id="path4" />
</g>
<g
   id="g8"
   transform="matrix(0.02760784,0,0,0.02760784,4.8646989,5)">
</g>
<g
   id="g10"
   transform="matrix(0.02760784,0,0,0.02760784,4.8646989,5)">
</g>
<g
   id="g12"
   transform="matrix(0.02760784,0,0,0.02760784,4.8646989,5)">
</g>
<g
   id="g14"
   transform="matrix(0.02760784,0,0,0.02760784,4.8646989,5)">
</g>
<g
   id="g16"
   transform="matrix(0.02760784,0,0,0.02760784,4.8646989,5)">
</g>
<g
   id="g18"
   transform="matrix(0.02760784,0,0,0.02760784,4.8646989,5)">
</g>
<g
   id="g20"
   transform="matrix(0.02760784,0,0,0.02760784,4.8646989,5)">
</g>
<g
   id="g22"
   transform="matrix(0.02760784,0,0,0.02760784,4.8646989,5)">
</g>
<g
   id="g24"
   transform="matrix(0.02760784,0,0,0.02760784,4.8646989,5)">
</g>
<g
   id="g26"
   transform="matrix(0.02760784,0,0,0.02760784,4.8646989,5)">
</g>
<g
   id="g28"
   transform="matrix(0.02760784,0,0,0.02760784,4.8646989,5)">
</g>
<g
   id="g30"
   transform="matrix(0.02760784,0,0,0.02760784,4.8646989,5)">
</g>
<g
   id="g32"
   transform="matrix(0.02760784,0,0,0.02760784,4.8646989,5)">
</g>
<g
   id="g34"
   transform="matrix(0.02760784,0,0,0.02760784,4.8646989,5)">
</g>
<g
   id="g36"
   transform="matrix(0.02760784,0,0,0.02760784,4.8646989,5)">
</g>
<path
   style="fill:#d8d8d8;stroke-width:0.014023"
   d="m 9.0716077,16.927393 -1.9842586,-2.208001 -0.652071,-9.37e-4 c -0.3586386,-4.71e-4 -0.7078247,-0.0072 -0.775968,-0.01503 -0.3720729,-0.04263 -0.6638557,-0.294577 -0.7628239,-0.658681 -0.023112,-0.08502 -0.024774,-0.21788 -0.024774,-1.977248 0,-1.759363 0.00165,-1.892219 0.024774,-1.977249 C 4.9827391,9.77293 5.2117585,9.5419223 5.530793,9.4504343 5.6037294,9.4295196 5.7130789,9.4252267 6.3521785,9.418205 L 7.089426,9.4101719 9.0709315,7.2085544 11.052437,5.0069395 h 0.695856 c 0.64872,0 0.701068,0.00185 0.772842,0.026787 0.105847,0.036825 0.223999,0.1549799 0.260824,0.2608255 0.02623,0.075361 0.02678,0.2182297 0.02678,6.772983 0,6.554753 -6.13e-4,6.697617 -0.02678,6.772982 -0.03486,0.100207 -0.154188,0.222522 -0.253675,0.260041 -0.06468,0.02441 -0.124436,0.02676 -0.771267,0.03058 l -0.701151,0.0043 z"
   id="path868" /><path
   style="fill:#d8d8d8;stroke-width:0.014023"
   d="m 14.474684,12.935905 c -0.348595,-0.04142 -0.650051,-0.306268 -0.740973,-0.65094 -0.02904,-0.110082 -0.02886,-0.325711 3.66e-4,-0.434716 0.08386,-0.312873 0.32035,-0.5479 0.638243,-0.634308 0.08502,-0.02309 0.217884,-0.02477 1.977248,-0.02477 1.759365,0 1.892222,0.0019 1.977246,0.02477 0.318013,0.08644 0.555551,0.322632 0.637931,0.634308 0.02867,0.108526 0.02886,0.325106 3.66e-4,0.434716 -0.07962,0.306161 -0.311742,0.539117 -0.631277,0.633544 -0.07849,0.02319 -0.207424,0.02502 -1.921153,0.02714 -1.010361,0.0014 -1.88245,-0.0033 -1.93798,-0.0098 z"
   id="path870" /></svg>
